<?xml version="1.0"?>
<svg xmlns="http://www.w3.org/2000/svg" id="Outline" viewBox="0 0 512 512" width="512" height="512"><circle cx="168" cy="296" r="8"/><circle cx="168" cy="328" r="8"/><circle cx="176" cy="56" r="8"/><path d="M216,64h56a8,8,0,0,0,0-16H216a8,8,0,0,0,0,16Z"/><path d="M419.294,277.177,360,166V56a40.045,40.045,0,0,0-40-40H128A40.045,40.045,0,0,0,88,56V456a40.045,40.045,0,0,0,40,40H416a8,8,0,0,0,8-8V296A40.132,40.132,0,0,0,419.294,277.177ZM223.786,288H200a8,8,0,0,0,0,16h15.9a40.185,40.185,0,0,0-.532,16H200a8,8,0,0,0,0,16h21.857L265.1,400H104V96H344V352H332.089l-44.24-61.226A39.989,39.989,0,0,0,223.786,288ZM128,32H320a24.028,24.028,0,0,1,24,24V80H104V56A24.028,24.028,0,0,1,128,32Zm0,448a24.028,24.028,0,0,1-24-24V416H272.383a88,88,0,0,0,37.111,64Zm280,0H360a72.085,72.085,0,0,1-71.984-70.485,8,8,0,0,0-1.227-5.994l-51.895-76.8a24,24,0,0,1,39.772-26.874c.047.07.1.138.145.207l46.705,64.636A8,8,0,0,0,328,368h24a8,8,0,0,0,8-8V200l45.177,84.706A24.1,24.1,0,0,1,408,296Z"/><path d="M224,424a24,24,0,1,0,24,24A24.027,24.027,0,0,0,224,424Zm0,32a8,8,0,1,1,8-8A8.009,8.009,0,0,1,224,456Z"/><path d="M288,248V136a8,8,0,0,0-8-8H168a8,8,0,0,0-8,8V248a8,8,0,0,0,8,8H280A8,8,0,0,0,288,248Zm-16-8H240V208h8a8,8,0,0,0,0-16h-8v-8a8.009,8.009,0,0,1,8-8,8,8,0,0,0,0-16,24.027,24.027,0,0,0-24,24v8h-8a8,8,0,0,0,0,16h8v32H176V144h96Z"/></svg>
